<svg width="50%" height="50%" viewBox="0 0 869 1206" fill="none" xmlns="http://www.w3.org/2000/svg"><path d="M434 1102s-40.5 0-40.5 47.5c0 22.93 21.596 41.51 44.5 40.5 23.063-1.01 42-23.41 42-46.5 0-41.5-46-41.5-46-41.5Zm0 0V186.002" stroke="#677662" stroke-width="30" stroke-linecap="round" stroke-linejoin="round" class="jwGXznLG_0"/><path d="M304 103.5c-18.865 27.548.563 55.202 3 88.5 2.238 30.575-20.96 46.656-3 71.5 16.977 23.485 37.809 12.33 62.5 27.5 28.354 17.421 34.758 50.944 68 52.5 34.956 1.637 32.633-30.609 63-48 26.261-15.039 61.554-5.976 77-31.999 15.911-26.809-15.043-47.33-14.5-78.501.496-28.486 26.716-45.76 14.5-71.499-13.347-28.121-46.374-15.878-73-32-28.957-17.534-34.959-49.488-67-48-32.041 1.486-32.608 33.075-61 48-29.265 15.383-50.82-5.28-69.5 21.999Z" stroke="#F74700" stroke-width="63" stroke-linecap="round" stroke-linejoin="round" class="jwGXznLG_1"/><path d="M350.669 130.897c-12.205 17.824.364 35.716 1.941 57.26 1.448 19.782-13.561 30.187-1.941 46.262 10.984 15.194 24.463 7.977 40.438 17.792 18.346 11.271 22.489 32.961 43.996 33.968 22.617 1.058 21.114-19.805 40.762-31.056 16.991-9.731 39.826-3.867 49.819-20.704 10.295-17.346-9.733-30.623-9.381-50.79.321-18.431 17.285-29.608 9.381-46.261-8.635-18.194-30.004-10.273-47.231-20.704-18.736-11.345-22.619-32.019-43.35-31.057-20.73.962-21.097 21.4-39.467 31.057-18.934 9.953-32.881-3.416-44.967 14.233Z" stroke="#B53A25" stroke-width="63" stroke-linecap="round" stroke-linejoin="round" class="jwGXznLG_2"/><path d="M388.5 183.5c-2.043 26.253 19.919 49.21 46.251 49.067 26.198-.143 47.782-22.947 45.749-49.067-1.882-24.18-21.496-41.868-45.749-42-24.398-.132-44.358 17.676-46.251 42Z" stroke="#F74700" stroke-width="45" stroke-linecap="round" stroke-linejoin="round" class="jwGXznLG_3"/><path d="M434.96 199.144c-7.736.042-14.076-6.894-13.511-14.151.54-6.948 6.106-12.153 13.511-12.113 7.376.041 12.827 5.193 13.366 12.113.563 7.237-5.65 14.109-13.366 14.151Z" stroke="#B53A25" stroke-width="26" stroke-linecap="round" stroke-linejoin="round" class="jwGXznLG_4"/><path d="M434.5 1005.5s34.5-77 75.5-100.001c44.266-24.834 140.561-51.262 184-127 20.061-34.977 32.5-57.679 32.5-98 0-46.499-4.5-127-4.5-127m0 0s-43 0-43-40.998c0-24.734 18.282-41.889 43-41.001 23.938.86 44 17.047 44 41.001 0 40.998-44 40.998-44 40.998Z" stroke="#677662" stroke-width="30" stroke-linecap="round" stroke-linejoin="round" class="jwGXznLG_5"/><path d="M434.089 1005.26s-34.5-77.003-75.5-100.005c-44.266-24.833-140.561-51.262-184-127-20.06-34.976-32.5-57.679-32.5-98 0-46.499 4.5-126.999 4.5-126.999m0 0s43 0 43-40.999c0-24.734-18.282-41.889-43-41.001-23.938.86-44 19.047-44 43 0 39 44 39 44 39Z" stroke="#677662" stroke-width="30" stroke-linecap="round" stroke-linejoin="round" class="jwGXznLG_6"/><path d="M432.667 577.624S462.5 465.916 561.5 386.998c106-84.498 209.167-111.374 209.167-111.374" stroke="#677662" stroke-width="30" stroke-linecap="round" stroke-linejoin="round" class="jwGXznLG_7"/><path d="M774.518 366.856c-15.774-.338-18.75-16.261-32.5-24-13.966-7.861-30.661-1.252-38-15.5-6.805-13.213 5.718-22.658 6.5-37.5.929-17.618-13.77-30.309-4-45 9.037-13.588 25.205-6.283 39-15 11.228-7.094 12.44-20.089 25.5-22.5 16.795-3.101 22.223 14.865 37.5 22.5 13.624 6.808 27.546 2.331 36 15 9.815 14.708-5.387 27.322-5 45 .324 14.771 12.115 24.552 5 37.5-7.371 13.415-22.622 8.061-36 15.5-14.204 7.898-17.751 24.348-34 24Z" stroke="#F74700" stroke-width="25" stroke-linecap="round" stroke-linejoin="round" class="jwGXznLG_8"/><path d="M776.216 343.996c-11.358-.241-13.501-11.596-23.401-17.115-10.057-5.606-22.078-.892-27.362-11.053-4.9-9.423 4.117-16.158 4.681-26.742.668-12.564-9.916-21.614-2.881-32.09 6.507-9.69 18.149-4.481 28.082-10.697 8.084-5.059 8.957-14.326 18.361-16.045 12.093-2.211 16.002 10.601 27.002 16.045 9.81 4.855 19.834 1.662 25.921 10.697 7.067 10.488-3.879 19.484-3.6 32.09.233 10.533 8.723 17.508 3.6 26.742-5.307 9.566-16.289 5.749-25.921 11.053-10.228 5.633-12.782 17.363-24.482 17.115Z" stroke="#B53A25" stroke-width="27" stroke-linecap="round" stroke-linejoin="round" class="jwGXznLG_9"/><path d="M775.292 327.997c-8.329-.175-9.901-8.443-17.161-12.461-7.375-4.081-16.19-.65-20.065-8.047-3.594-6.861 3.019-11.764 3.432-19.47.49-9.148-7.271-15.737-2.112-23.364 4.771-7.055 13.309-3.263 20.593-7.788 5.928-3.683 6.569-10.43 13.465-11.682 8.868-1.61 11.734 7.718 19.801 11.682 7.194 3.535 14.545 1.21 19.009 7.788 5.183 7.636-2.844 14.186-2.64 23.364.171 7.669 6.397 12.747 2.64 19.47-3.892 6.965-11.945 4.185-19.009 8.047-7.5 4.101-9.373 12.642-17.953 12.461Z" stroke="#B53A25" stroke-width="27" stroke-linecap="round" stroke-linejoin="round" class="jwGXznLG_10"/><path d="M774.589 303.451c-9.678.052-17.637-8.576-16.921-17.768.68-8.741 7.717-15.259 16.921-15.209 9.164.05 16.06 6.506 16.738 15.209.713 9.163-7.092 17.715-16.738 17.768Z" stroke="#F74700" stroke-width="26" stroke-linecap="round" stroke-linejoin="round" class="jwGXznLG_11"/><path d="M769.72 286.393c-.213 2.732 2.072 5.12 4.812 5.105 2.725-.015 4.97-2.387 4.759-5.105-.196-2.515-2.236-4.355-4.759-4.369-2.539-.014-4.615 1.839-4.812 4.369Z" stroke="#B53A25" stroke-width="10" stroke-linecap="round" stroke-linejoin="round" class="jwGXznLG_12"/><path d="M437 585.407s-29.833-111.709-128.833-190.626C202.167 310.283 99 283.407 99 283.407" stroke="#677662" stroke-width="30" stroke-linecap="round" stroke-linejoin="round" class="jwGXznLG_13"/><path d="M93.518 366.856c-15.774-.338-18.75-16.261-32.5-24-13.966-7.861-30.661-1.252-38-15.5-6.805-13.213 5.718-22.658 6.5-37.5.93-17.618-13.77-30.309-4-45 9.037-13.588 25.205-6.283 39-15 11.228-7.094 12.44-20.089 25.5-22.5 16.795-3.101 22.223 14.865 37.5 22.5 13.624 6.808 27.546 2.331 36 15 9.815 14.708-5.387 27.322-5 45 .324 14.771 12.115 24.552 5 37.5-7.371 13.415-22.622 8.061-36 15.5-14.204 7.898-17.751 24.348-34 24Z" stroke="#F74700" stroke-width="25" stroke-linecap="round" stroke-linejoin="round" class="jwGXznLG_14"/><path d="M95.216 343.996c-11.358-.241-13.501-11.596-23.401-17.115-10.057-5.606-22.078-.892-27.362-11.053-4.9-9.423 4.117-16.158 4.68-26.742.67-12.564-9.915-21.614-2.88-32.09 6.507-9.69 18.15-4.481 28.082-10.697 8.084-5.059 8.957-14.326 18.361-16.045 12.093-2.211 16.002 10.601 27.002 16.045 9.81 4.855 19.834 1.662 25.921 10.697 7.067 10.488-3.879 19.484-3.6 32.09.233 10.533 8.723 17.508 3.6 26.742-5.307 9.566-16.289 5.749-25.921 11.053-10.228 5.633-12.782 17.363-24.482 17.115Z" stroke="#B53A25" stroke-width="27" stroke-linecap="round" stroke-linejoin="round" class="jwGXznLG_15"/><path d="M94.292 327.997c-8.33-.175-9.901-8.443-17.161-12.461-7.375-4.081-16.19-.65-20.065-8.047-3.594-6.861 3.019-11.764 3.432-19.47.49-9.148-7.271-15.737-2.112-23.364 4.771-7.055 13.309-3.263 20.593-7.788 5.928-3.683 6.569-10.43 13.465-11.682 8.868-1.61 11.734 7.718 19.801 11.682 7.194 3.535 14.545 1.21 19.009 7.788 5.183 7.636-2.844 14.186-2.64 23.364.171 7.669 6.397 12.747 2.64 19.47-3.892 6.965-11.945 4.185-19.009 8.047-7.5 4.101-9.373 12.642-17.953 12.461Z" stroke="#B53A25" stroke-width="27" stroke-linecap="round" stroke-linejoin="round" class="jwGXznLG_16"/><path d="M93.589 303.451c-9.678.052-17.637-8.576-16.921-17.768.68-8.741 7.717-15.259 16.92-15.209 9.165.05 16.061 6.506 16.739 15.209.713 9.163-7.092 17.715-16.738 17.768Z" stroke="#F74700" stroke-width="26" stroke-linecap="round" stroke-linejoin="round" class="jwGXznLG_17"/><path d="M88.72 286.393c-.213 2.732 2.072 5.12 4.811 5.105 2.726-.015 4.971-2.387 4.76-5.105-.196-2.515-2.236-4.355-4.76-4.369-2.538-.014-4.614 1.839-4.811 4.369Z" stroke="#B53A25" stroke-width="10" stroke-linecap="round" stroke-linejoin="round" class="jwGXznLG_18"/><path d="M296 744c64.609 65 136 60 136 60s-46-16-49.5-60-5.923-89.725-44-124.5C307.667 591.341 238 583 238 583s10.887 113.602 58 161Z" stroke="#677662" stroke-width="18" stroke-linecap="round" stroke-linejoin="round" class="jwGXznLG_19"/><path d="M308.104 738.996c53.135 60.344 109.808 62.922 109.808 62.922s-37.027-17.7-40.981-54.744c-3.953-37.043-7.094-75.425-38.316-108.041-25.281-26.41-80.937-39.958-80.937-39.958s11.679 95.818 50.426 139.821Z" stroke="#677662" stroke-width="18" stroke-linecap="round" stroke-linejoin="round" class="jwGXznLG_20"/><path d="M314.863 748.669c48.417 53.592 103.049 53.249 103.049 53.249s-34.918-14.681-36.945-48.968c-2.026-34.287-3.204-69.858-31.79-98.704-23.148-23.358-76.265-33.273-76.265-33.273s6.646 88.616 41.951 127.696Z" stroke="#677662" stroke-width="18" stroke-linecap="round" stroke-linejoin="round" class="jwGXznLG_21"/><path d="M326.291 740.497c41.42 49.006 81.375 54.818 81.375 54.818s-27.199-15.839-32.505-43.964c-5.307-28.125-10.135-57.2-34.278-83.859-19.55-21.586-59.54-35.576-59.54-35.576s14.745 72.846 44.948 108.581Z" stroke="#677662" stroke-width="18" stroke-linecap="round" stroke-linejoin="round" class="jwGXznLG_22"/><path d="M334.175 730.05c29.279 35.617 55.43 41.61 55.43 41.61s-18.402-12.209-23.255-31.718c-4.854-19.508-9.447-39.643-26.417-59.1-13.742-15.755-40.329-27.345-40.329-27.345s13.22 50.581 34.571 76.553Z" stroke="#677662" stroke-width="18" stroke-linecap="round" stroke-linejoin="round" class="jwGXznLG_23"/><path d="M339.045 713.253c22.163 28.307 39.071 35.443 39.071 35.443s-12.791-10.638-17.987-24.892c-5.196-14.254-10.299-28.918-23.013-44.49-10.294-12.61-28.099-23.728-28.099-23.728s13.866 37.026 30.028 57.667Z" stroke="#677662" stroke-width="18" stroke-linecap="round" stroke-linejoin="round" class="jwGXznLG_24"/><path d="M578.373 744.19c-64.609 65-136 60-136 60s46-16 49.5-60 5.922-89.725 44-124.5c30.832-28.158 100.5-36.5 100.5-36.5s-10.887 113.602-58 161Z" stroke="#677662" stroke-width="18" stroke-linecap="round" stroke-linejoin="round" class="jwGXznLG_25"/><path d="M566.269 739.186c-53.135 60.344-109.808 62.922-109.808 62.922s37.027-17.699 40.98-54.743c3.953-37.044 7.095-75.426 38.316-108.042 25.282-26.41 80.937-39.958 80.937-39.958s-11.679 95.818-50.425 139.821Z" stroke="#677662" stroke-width="18" stroke-linecap="round" stroke-linejoin="round" class="jwGXznLG_26"/><path d="M559.509 748.859c-48.417 53.593-103.048 53.249-103.048 53.249s34.918-14.681 36.944-48.968c2.027-34.287 3.204-69.858 31.791-98.704 23.148-23.357 76.265-33.273 76.265-33.273s-6.646 88.616-41.952 127.696Z" stroke="#677662" stroke-width="18" stroke-linecap="round" stroke-linejoin="round" class="jwGXznLG_27"/><path d="M548.081 740.688c-41.419 49.006-81.374 54.817-81.374 54.817s27.199-15.839 32.505-43.964c5.306-28.125 10.134-57.2 34.278-83.858 19.549-21.587 59.54-35.577 59.54-35.577s-14.745 72.846-44.949 108.582Z" stroke="#677662" stroke-width="18" stroke-linecap="round" stroke-linejoin="round" class="jwGXznLG_28"/><path d="M540.198 730.24c-29.28 35.618-55.431 41.611-55.431 41.611s18.402-12.21 23.256-31.718c4.854-19.509 9.446-39.644 26.417-59.101 13.741-15.755 40.328-27.344 40.328-27.344s-13.22 50.58-34.57 76.552Z" stroke="#677662" stroke-width="18" stroke-linecap="round" stroke-linejoin="round" class="jwGXznLG_29"/><path d="M535.328 713.443c-22.164 28.307-39.072 35.444-39.072 35.444s12.792-10.639 17.988-24.893c5.195-14.253 10.299-28.918 23.012-44.49 10.295-12.609 28.099-23.728 28.099-23.728s-13.866 37.026-30.027 57.667Z" stroke="#677662" stroke-width="18" stroke-linecap="round" stroke-linejoin="round" class="jwGXznLG_30"/></svg>